 <svg  version="1.0" xmlns="http://www.w3.org/2000/svg"  width="342.000000pt" height="342.000000pt" viewBox="0 0 342.000000 342.000000"  preserveAspectRatio="xMidYMid meet">  <g transform="translate(0.000000,342.000000) scale(0.100000,-0.100000)" fill="#ffffff" stroke="none"> <path d="M1672 3400 c-7 -11 -23 -20 -36 -20 -13 0 -26 -7 -30 -15 -3 -8 -16 -15 -29 -15 -14 0 -30 -7 -37 -15 -7 -8 -20 -15 -30 -15 -10 0 -23 -7 -30 -15 -7 -8 -18 -15 -25 -15 -8 0 -26 -6 -42 -14 -119 -60 -156 -76 -172 -76 -10 0 -21 -7 -25 -15 -3 -8 -16 -15 -29 -15 -14 0 -30 -7 -37 -15 -7 -8 -20 -15 -30 -15 -10 0 -23 -7 -30 -15 -7 -8 -18 -15 -25 -15 -8 0 -26 -6 -42 -14 -115 -58 -155 -76 -167 -76 -7 0 -19 -7 -26 -15 -7 -8 -23 -15 -35 -15 -13 0 -25 -7 -29 -15 -3 -8 -16 -15 -29 -15 -14 0 -30 -7 -37 -15 -7 -8 -18 -15 -25 -15 -8 0 -26 -6 -42 -14 -131 -66 -217 -106 -229 -106 -30 0 -53 -38 -56 -92 l-3 -53 -61 -3 c-45 -2 -64 1 -74 13 -17 20 -61 19 -99 -2 -27 -16 -30 -23 -36 -88 -3 -38 -5 -463 -3 -943 l3 -873 35 -29 c19 -16 45 -30 58 -30 12 0 25 -7 28 -15 4 -8 15 -15 25 -15 10 0 45 -13 76 -29 101 -51 189 -91 200 -91 6 0 16 -7 23 -15 7 -8 21 -15 31 -15 9 0 24 -7 33 -15 8 -8 23 -15 34 -15 11 0 25 -7 32 -15 7 -8 19 -15 26 -15 12 0 52 -18 167 -76 16 -8 34 -14 42 -14 7 0 18 -7 25 -15 7 -8 23 -15 37 -15 13 0 26 -7 29 -15 4 -8 17 -15 30 -15 14 0 27 -7 30 -15 4 -8 15 -15 25 -15 10 0 45 -13 76 -28 147 -73 189 -92 199 -92 6 0 17 -7 24 -15 7 -8 23 -15 37 -15 13 0 26 -7 29 -15 4 -8 16 -15 29 -15 12 0 28 -7 35 -15 7 -8 20 -15 29 -15 10 0 26 -7 37 -15 10 -8 25 -15 33 -15 8 0 22 -7 31 -15 10 -9 39 -18 66 -21 41 -5 54 -2 77 16 25 20 27 27 27 96 0 71 13 120 50 186 6 10 10 23 10 29 0 6 6 25 14 42 7 18 24 60 36 95 13 34 27 65 31 68 5 3 9 14 9 24 0 18 11 49 46 125 7 17 16 42 20 58 3 15 10 30 15 33 5 3 9 12 9 21 0 8 6 29 14 46 7 18 18 45 25 60 11 28 14 29 64 24 28 -3 99 -12 157 -21 58 -9 150 -23 205 -32 55 -8 143 -22 195 -30 52 -8 141 -20 198 -27 l102 -12 -15 -22 c-9 -13 -24 -23 -33 -23 -9 0 -26 -7 -36 -15 -11 -8 -27 -15 -37 -15 -9 0 -22 -7 -29 -15 -7 -8 -23 -15 -35 -15 -13 0 -25 -7 -29 -15 -3 -8 -16 -15 -29 -15 -14 0 -30 -7 -37 -15 -7 -8 -18 -15 -25 -15 -8 0 -26 -7 -42 -14 -15 -8 -35 -17 -43 -20 -8 -3 -22 -10 -30 -15 -45 -26 -80 -41 -93 -41 -8 0 -20 -7 -27 -15 -7 -8 -23 -15 -35 -15 -13 0 -25 -7 -29 -15 -3 -8 -16 -15 -29 -15 -14 0 -30 -7 -37 -15 -7 -8 -18 -15 -24 -15 -10 0 -119 -50 -156 -71 -8 -5 -22 -12 -30 -15 -8 -3 -27 -12 -42 -20 -14 -8 -35 -14 -46 -14 -11 0 -22 -7 -26 -15 -3 -8 -16 -15 -30 -15 -13 0 -26 -7 -30 -15 -3 -8 -16 -15 -28 -15 -17 0 -28 -11 -42 -41 -18 -39 -18 -42 -1 -73 19 -34 64 -66 96 -66 10 0 19 4 19 10 0 5 12 13 26 16 15 4 50 20 80 35 29 16 62 29 73 29 10 0 21 7 25 15 3 8 16 15 29 15 14 0 30 7 37 15 7 8 17 15 23 15 11 0 99 40 200 91 31 16 63 29 71 29 7 0 19 7 26 15 7 8 23 15 35 15 13 0 25 7 29 15 3 8 16 15 29 15 14 0 30 7 37 15 7 8 18 15 25 15 8 0 26 6 42 14 138 70 217 106 232 106 10 0 24 7 31 15 7 8 20 15 30 15 10 0 23 7 30 15 7 8 18 15 25 15 7 0 35 11 62 24 26 13 68 34 93 46 85 40 80 -18 80 844 l0 762 -35 37 c-42 45 -80 49 -122 13 l-28 -24 -2 -634 c-2 -348 -3 -637 -3 -642 0 -18 -36 30 -90 119 -29 50 -73 120 -97 157 -24 37 -43 72 -43 77 0 6 -4 11 -10 11 -5 0 -10 5 -10 11 0 6 -20 42 -45 79 -25 37 -45 74 -45 83 0 9 14 16 43 21 23 3 65 10 92 15 28 6 71 10 96 10 45 1 99 29 99 52 0 11 -80 108 -189 227 -42 46 -80 92 -86 102 -5 10 -45 55 -87 99 -43 45 -78 86 -78 90 0 10 115 71 134 71 7 0 19 7 26 15 7 8 23 15 35 15 12 0 28 7 35 15 7 8 18 15 24 15 10 0 119 50 156 71 8 5 22 12 30 15 28 11 85 37 100 45 8 5 24 13 35 18 27 12 65 65 65 90 0 26 -65 91 -91 91 -11 0 -22 7 -25 15 -4 8 -15 15 -25 15 -10 0 -45 13 -76 29 -101 51 -189 91 -200 91 -6 0 -16 7 -23 15 -7 8 -21 15 -31 15 -9 0 -24 7 -33 15 -8 8 -23 15 -34 15 -11 0 -25 7 -32 15 -7 8 -19 15 -26 15 -7 0 -30 9 -51 19 -73 37 -150 71 -160 71 -6 0 -16 7 -23 15 -7 8 -23 15 -37 15 -13 0 -26 7 -29 15 -4 8 -17 15 -30 15 -14 0 -27 7 -30 15 -4 8 -15 15 -25 15 -10 0 -45 13 -76 28 -147 73 -189 92 -199 92 -6 0 -17 7 -24 15 -7 8 -23 15 -37 15 -13 0 -26 7 -29 15 -4 8 -16 15 -29 15 -12 0 -28 7 -35 15 -7 8 -20 15 -29 15 -10 0 -26 7 -37 15 -10 8 -26 15 -35 15 -9 0 -22 6 -28 14 -6 7 -25 16 -41 20 -18 3 -30 12 -30 21 0 23 -53 19 -68 -5z m82 -217 c12 -10 59 -61 104 -113 45 -52 95 -108 110 -125 56 -59 49 -75 -36 -75 -26 0 -64 -4 -85 -9 -35 -8 -39 -7 -48 16 -5 13 -9 63 -9 111 0 87 0 87 -31 105 -46 26 -78 22 -116 -15 -33 -32 -33 -32 -33 -132 0 -56 -4 -106 -8 -112 -4 -6 -54 -16 -112 -23 -58 -6 -120 -15 -139 -18 l-33 -6 18 29 c10 16 59 74 108 129 50 55 102 113 116 129 106 122 148 145 194 109z m-321 -109 c5 -6 -106 -139 -157 -189 -12 -11 -36 -39 -54 -62 -38 -49 -67 -60 -188 -73 -176 -19 -310 -39 -342 -50 -24 -9 -37 -9 -44 -2 -8 8 -5 14 13 22 13 5 31 14 39 19 8 5 47 24 85 41 39 18 82 38 97 46 14 8 33 14 41 14 8 0 20 7 27 15 7 8 23 15 35 15 12 0 28 7 35 15 7 8 20 15 30 15 10 0 23 7 30 15 7 8 18 15 25 15 8 0 26 7 42 14 15 8 35 17 43 20 8 3 22 10 30 15 8 5 22 12 30 15 8 3 22 10 30 14 48 27 84 42 100 42 10 0 20 7 24 15 6 16 18 19 29 9z m583 -9 c10 -8 26 -15 35 -15 9 0 22 -7 29 -15 7 -8 20 -15 30 -15 10 0 23 -7 30 -15 7 -8 23 -15 37 -15 13 0 26 -7 29 -15 4 -8 15 -15 26 -15 11 0 33 -11 50 -25 l30 -25 -39 0 c-21 0 -61 -3 -90 -6 -51 -7 -53 -6 -89 32 -19 22 -56 60 -80 85 -24 25 -41 49 -37 53 9 9 17 8 39 -9z m419 -195 c32 -16 64 -30 71 -30 6 0 17 -7 24 -15 7 -8 23 -15 37 -15 13 0 26 -7 29 -15 4 -8 16 -15 29 -15 12 0 28 -7 35 -15 7 -8 19 -15 27 -15 8 0 27 -6 41 -14 15 -8 34 -17 42 -20 8 -3 22 -10 30 -15 44 -25 147 -71 161 -71 19 0 62 -44 52 -53 -3 -4 -14 -7 -24 -7 -9 0 -39 -11 -66 -24 -26 -13 -84 -41 -128 -61 -44 -20 -92 -43 -107 -51 -14 -7 -32 -14 -39 -14 -7 0 -20 -7 -30 -16 -27 -24 -59 -11 -99 41 -19 24 -57 68 -84 97 -112 122 -156 176 -156 192 0 9 16 39 35 67 19 28 35 59 35 68 0 39 11 39 85 1z m-318 -92 c46 -51 47 -64 9 -123 -20 -29 -36 -58 -36 -65 0 -6 -7 -13 -15 -16 -8 -4 -15 -11 -15 -18 0 -7 -20 -42 -44 -79 -24 -36 -46 -73 -49 -82 -4 -8 -23 -41 -43 -72 -48 -73 -93 -153 -100 -175 -4 -10 -13 -18 -20 -18 -19 0 -21 597 -1 623 8 10 44 21 107 30 145 22 183 21 207 -5z m-509 -334 l2 -290 35 -39 c32 -34 39 -37 72 -32 21 4 39 11 41 17 4 12 32 14 32 2 0 -18 -82 -122 -96 -122 -8 0 -30 -17 -49 -37 -31 -33 -35 -43 -35 -91 0 -45 -6 -65 -37 -116 -20 -33 -40 -63 -44 -66 -3 -3 -9 -15 -13 -26 -13 -42 -36 -53 -91 -42 -27 5 -94 13 -148 18 -54 5 -102 12 -107 15 -6 4 -52 10 -103 15 -50 5 -119 14 -152 20 -33 5 -100 14 -150 21 -216 26 -195 21 -216 59 -36 70 -50 110 -42 124 4 8 42 52 84 98 42 46 102 115 135 155 32 40 63 72 67 73 4 0 38 -14 75 -31 37 -16 76 -34 87 -39 17 -7 96 -43 261 -121 23 -10 44 -19 47 -19 3 0 40 -16 81 -35 112 -52 164 -44 185 26 19 62 -2 90 -102 138 -217 104 -275 131 -283 131 -5 0 -36 13 -69 29 -33 16 -79 38 -102 48 -23 10 -43 22 -43 26 0 5 40 52 88 105 48 53 99 110 112 126 92 110 85 106 205 122 182 25 239 32 255 30 13 -1 15 -42 18 -292z m-538 213 c0 -7 -12 -24 -28 -37 -15 -14 -35 -36 -44 -50 -19 -30 -148 -174 -160 -178 -7 -3 -50 16 -242 110 -43 21 -86 38 -96 38 -9 0 -29 11 -44 25 -15 14 -23 25 -19 25 4 0 78 9 163 20 85 11 211 27 280 36 68 8 126 17 129 19 10 11 61 4 61 -8z m1229 -92 c34 -38 65 -74 69 -80 5 -5 31 -36 60 -68 29 -31 52 -62 52 -67 0 -9 -181 -100 -198 -100 -3 0 -47 -20 -97 -44 -49 -24 -97 -46 -105 -50 -8 -3 -22 -10 -30 -15 -8 -4 -46 -23 -83 -41 -92 -45 -102 -32 -43 54 25 37 46 71 46 75 0 4 20 38 45 75 25 38 45 71 45 74 0 4 53 91 92 151 10 14 23 37 29 51 13 30 40 62 50 58 4 -2 34 -34 68 -73z m-1912 -173 c32 -16 90 -43 128 -61 39 -18 83 -39 98 -47 16 -8 35 -14 43 -14 8 0 23 -9 34 -20 20 -20 20 -20 -28 -69 -26 -26 -76 -83 -111 -125 -69 -82 -96 -94 -107 -48 -4 15 -13 36 -20 47 -8 11 -14 27 -14 36 0 10 -8 32 -17 51 -9 18 -22 45 -30 60 -7 14 -13 33 -13 41 0 9 -6 28 -14 44 -19 37 -56 121 -56 128 0 14 56 2 107 -23z m-97 -229 c0 -12 4 -24 9 -28 5 -3 13 -20 17 -37 3 -18 10 -39 15 -48 14 -26 38 -83 53 -128 l14 -43 -54 -61 c-30 -33 -54 -64 -54 -69 0 -5 -7 -9 -15 -9 -13 0 -15 31 -15 219 0 219 4 266 21 239 5 -7 9 -23 9 -35z m2411 -58 c89 -103 174 -199 252 -284 31 -34 55 -66 52 -71 -7 -12 -88 -30 -168 -36 -72 -6 -74 -6 -95 21 -12 15 -22 31 -22 35 0 4 -20 38 -45 76 -25 37 -45 74 -45 81 0 7 -5 13 -10 13 -6 0 -14 10 -19 23 -5 12 -21 39 -35 60 -14 21 -26 40 -26 43 0 3 -12 21 -26 39 l-25 34 43 19 c54 24 70 30 84 31 7 1 45 -37 85 -84z m-282 -35 c-9 -41 -12 -48 -42 -108 -9 -19 -17 -40 -17 -49 0 -8 -6 -27 -14 -41 -8 -15 -24 -56 -37 -92 -12 -36 -26 -69 -31 -75 -4 -5 -8 -17 -8 -27 0 -30 -41 -46 -140 -58 -52 -5 -117 -14 -145 -20 -27 -5 -80 -9 -117 -9 -81 -1 -81 -1 -76 134 l3 89 55 27 c95 48 309 149 316 149 8 0 91 37 114 51 8 5 22 12 30 15 8 4 37 17 64 30 28 13 51 24 52 24 1 0 -2 -18 -7 -40z m106 -146 c11 -22 30 -53 41 -69 38 -52 85 -149 80 -162 -4 -8 -24 -13 -58 -13 -29 0 -85 -7 -123 -15 -39 -8 -75 -15 -82 -15 -20 0 -26 40 -9 59 9 10 16 25 16 33 0 13 14 50 50 133 5 11 12 31 16 45 8 32 24 52 38 47 5 -2 19 -21 31 -43z m-2078 -160 c6 -16 -15 -37 -29 -28 -4 3 -8 14 -8 25 0 23 28 26 37 3z m-96 -105 c24 0 64 -4 88 -7 50 -8 67 -29 106 -137 12 -33 32 -82 44 -108 11 -27 24 -61 28 -75 3 -15 12 -36 19 -47 8 -11 14 -29 14 -41 0 -12 7 -27 15 -34 33 -28 13 -53 -75 -97 -46 -24 -92 -43 -101 -43 -9 0 -22 -7 -29 -15 -7 -8 -18 -15 -24 -15 -6 0 -46 -18 -88 -39 -62 -32 -78 -36 -82 -24 -8 20 -8 677 0 698 6 14 8 14 24 0 9 -8 36 -15 61 -16z m394 -49 c28 -8 74 -14 329 -41 55 -6 108 -14 117 -20 10 -5 38 -9 62 -9 24 0 72 -3 106 -6 104 -11 82 -35 -104 -114 -27 -12 -63 -28 -80 -35 -16 -8 -37 -16 -45 -19 -8 -3 -22 -10 -30 -15 -18 -12 -189 -92 -245 -115 -22 -9 -48 -22 -59 -27 -12 -7 -22 -7 -28 -1 -12 12 -78 168 -86 202 -2 14 -11 34 -18 45 -8 11 -14 29 -14 41 0 12 -7 27 -15 34 -8 7 -15 20 -15 29 0 9 -5 22 -11 28 -7 7 -9 19 -5 28 5 14 15 16 59 10 28 -4 66 -10 82 -15z m2010 -72 c26 -40 56 -85 66 -100 11 -15 19 -30 19 -34 0 -3 14 -26 30 -51 17 -24 30 -46 30 -49 0 -3 11 -20 25 -38 14 -18 25 -36 25 -41 0 -4 20 -38 45 -75 25 -37 45 -73 45 -78 0 -6 10 -20 22 -32 16 -14 19 -23 11 -31 -7 -7 -30 -1 -79 24 -63 31 -162 78 -239 112 -45 20 -226 104 -260 120 -16 8 -69 32 -116 52 -124 55 -137 65 -122 94 6 13 19 42 28 64 36 88 37 90 85 92 25 2 61 8 80 14 19 5 80 14 135 18 55 5 105 9 112 10 6 0 33 -32 58 -71z m-545 -17 c0 -10 -7 -26 -15 -37 -8 -10 -15 -27 -15 -36 0 -28 -18 -31 -58 -10 -20 10 -53 24 -73 31 -31 10 -80 48 -68 52 15 6 206 24 217 21 6 -2 12 -12 12 -21z m-605 -287 c0 -123 -1 -129 -20 -127 -11 1 -51 7 -90 13 -38 6 -87 14 -108 17 -44 6 -57 26 -33 52 9 10 16 20 16 24 0 3 11 23 25 44 17 25 41 43 73 56 26 10 63 27 82 37 19 11 40 18 45 16 6 -2 10 -54 10 -132z m259 117 c23 -11 48 -22 56 -25 8 -3 22 -10 30 -15 8 -5 42 -22 75 -38 66 -33 78 -56 51 -98 -9 -13 -16 -32 -16 -42 0 -10 -11 -34 -24 -54 l-24 -35 -97 11 c-75 9 -101 16 -111 30 -10 14 -14 55 -14 145 0 70 3 130 7 133 10 11 23 8 67 -12z m-611 -162 c-6 -22 -48 -43 -65 -33 -11 7 39 53 59 54 6 0 9 -9 6 -21z m997 -16 c81 -39 234 -110 275 -128 22 -9 62 -27 88 -41 27 -13 57 -24 66 -24 18 0 41 -18 41 -32 0 -14 -86 -5 -303 33 -33 6 -93 15 -135 20 -43 6 -94 13 -114 16 -44 6 -57 32 -34 68 9 13 16 33 16 43 0 21 38 75 49 70 3 -2 26 -13 51 -25z m-1165 -146 c36 -60 36 -62 21 -92 -36 -67 -79 -142 -100 -170 -12 -16 -25 -38 -29 -48 -8 -22 -27 -13 -27 13 0 10 -4 21 -9 25 -5 3 -13 20 -17 37 -3 18 -10 39 -15 48 -21 40 -38 83 -44 110 -4 16 -11 32 -16 35 -22 14 -6 41 34 58 23 10 64 29 92 42 59 27 60 27 110 -58z m431 7 c58 -5 77 -11 85 -25 13 -25 7 -639 -6 -640 -5 0 -12 8 -15 18 -3 10 -31 57 -62 105 -32 48 -58 90 -58 93 0 3 -27 47 -60 97 -33 51 -60 98 -60 105 0 7 -5 13 -10 13 -6 0 -14 10 -19 23 -5 12 -25 46 -45 74 -20 29 -36 60 -36 69 0 16 44 82 63 95 5 4 40 0 79 -7 38 -7 103 -16 144 -20z m-739 -105 c13 -24 23 -52 23 -61 0 -9 4 -19 9 -22 4 -3 18 -34 31 -68 12 -35 28 -75 36 -90 8 -14 14 -35 14 -46 0 -11 7 -25 15 -32 17 -14 20 -40 6 -40 -6 0 -13 5 -16 10 -3 5 -17 10 -31 10 -14 0 -27 7 -30 15 -4 8 -16 15 -29 15 -12 0 -28 7 -35 15 -7 8 -19 15 -27 15 -13 0 -48 15 -93 41 -8 5 -22 12 -30 15 -27 10 -85 36 -100 45 -8 5 -22 12 -30 15 -8 3 -22 10 -30 15 -8 5 -28 14 -44 21 l-28 11 68 32 c38 18 104 49 146 69 42 20 83 36 91 36 8 0 20 7 27 15 19 23 32 14 57 -36z m1199 30 c9 -7 8 -21 -3 -52 -15 -46 -38 -102 -53 -129 -6 -10 -10 -26 -10 -36 0 -10 -7 -27 -15 -38 -8 -10 -15 -26 -15 -34 0 -8 -7 -28 -15 -44 -8 -15 -15 -32 -15 -37 0 -5 -10 -31 -22 -59 -14 -33 -24 -46 -30 -38 -9 15 -11 449 -2 473 6 14 18 15 88 9 44 -3 86 -11 92 -15z m-756 -152 c0 -4 27 -49 60 -99 33 -51 60 -98 60 -105 0 -7 5 -13 10 -13 6 0 14 -10 19 -22 5 -13 21 -40 35 -61 14 -20 40 -63 57 -95 17 -31 40 -66 50 -78 11 -11 19 -26 19 -32 0 -17 -35 -15 -50 3 -7 8 -20 15 -29 15 -10 0 -26 7 -37 15 -10 8 -26 15 -35 15 -9 0 -22 7 -29 15 -7 8 -20 15 -30 15 -10 0 -23 7 -30 15 -7 8 -23 15 -37 15 -13 0 -26 7 -29 15 -4 8 -15 15 -26 15 -11 0 -32 6 -46 14 -15 8 -34 17 -42 20 -8 3 -22 10 -30 15 -8 5 -37 19 -63 31 l-48 22 20 22 c12 12 21 25 21 29 0 4 12 26 27 50 15 23 38 62 51 87 40 73 46 84 66 113 l19 28 23 -28 c13 -15 23 -32 24 -36z m502 -547 c-3 -25 -19 -50 -33 -50 -4 0 -11 10 -15 22 -3 12 -13 28 -20 36 -22 21 -9 30 33 23 33 -6 38 -10 35 -31z"/> </g> </svg> 